<svg width="66" height="66" viewBox="0 0 66 66" fill="none" xmlns="http://www.w3.org/2000/svg">
<g filter="url(#filter0_d_448_553)">
<rect x="12" y="8" width="42" height="42" rx="21" fill="white" fill-opacity="0.1" shape-rendering="crispEdges"/>
<path fill-rule="evenodd" clip-rule="evenodd" d="M31.4085 21.9255C31.7258 22.2428 31.7258 22.7572 31.4085 23.0745L26.2955 28.1875H41.6673C42.116 28.1875 42.4798 28.5513 42.4798 29C42.4798 29.4487 42.116 29.8125 41.6673 29.8125H26.2955L31.4085 34.9255C31.7258 35.2428 31.7258 35.7572 31.4085 36.0745C31.0912 36.3918 30.5768 36.3918 30.2595 36.0745L23.7595 29.5745C23.4422 29.2572 23.4422 28.7428 23.7595 28.4255L30.2595 21.9255C30.5768 21.6082 31.0912 21.6082 31.4085 21.9255Z" fill="#1B1B1B"/>
</g>
<defs>
<filter id="filter0_d_448_553" x="0" y="0" width="66" height="66" filterUnits="userSpaceOnUse" color-interpolation-filters="sRGB">
<feFlood flood-opacity="0" result="BackgroundImageFix"/>
<feColorMatrix in="SourceAlpha" type="matrix" values="0 0 0 0 0 0 0 0 0 0 0 0 0 0 0 0 0 0 127 0" result="hardAlpha"/>
<feOffset dy="4"/>
<feGaussianBlur stdDeviation="6"/>
<feComposite in2="hardAlpha" operator="out"/>
<feColorMatrix type="matrix" values="0 0 0 0 0.0509804 0 0 0 0 0.0392157 0 0 0 0 0.172549 0 0 0 0.06 0"/>
<feBlend mode="normal" in2="BackgroundImageFix" result="effect1_dropShadow_448_553"/>
<feBlend mode="normal" in="SourceGraphic" in2="effect1_dropShadow_448_553" result="shape"/>
</filter>
</defs>
</svg>
